<svg width="66" height="70" xmlns="http://www.w3.org/2000/svg"><g fill="none" fill-rule="evenodd"><path d="M-33-32h133v133H-33z"/><g fill="#FFF" fill-rule="nonzero" stroke="#000" stroke-width="3"><path d="M16 1.5C7.99 1.5 1.5 7.944 1.5 15.888v37.224C1.5 61.056 7.99 67.5 16 67.5s14.5-6.444 14.5-14.388V15.888C30.5 7.944 24.01 1.5 16 1.5zm34 0c-8.01 0-14.5 6.444-14.5 14.388v37.224C35.5 61.056 41.99 67.5 50 67.5s14.5-6.444 14.5-14.388V15.888C64.5 7.944 58.01 1.5 50 1.5z"/><path d="M6.287 5.227C.347 10.593-.13 19.78 5.221 25.743l34.058 37.95c5.349 5.96 14.496 6.444 20.434 1.08 5.94-5.366 6.418-14.553 1.066-20.516L26.72 6.307C21.372.347 12.225-.137 6.287 5.227z"/></g></g></svg>