<?xml version="1.0" encoding="UTF-8"?>
<svg width="46px" height="48px" viewBox="0 0 46 48" version="1.1" xmlns="http://www.w3.org/2000/svg" xmlns:xlink="http://www.w3.org/1999/xlink">
    <!-- Generator: Sketch 60 (88103) - https://sketch.com -->
    <title>NOTA_logo_white</title>
    <desc>Created with Sketch.</desc>
    <g id="Page-1" stroke="none" stroke-width="1" fill="none" fill-rule="evenodd">
        <g id="NOTA_logo_white" transform="translate(-23.000000, -23.000000)">
            <polygon id="Rectangle-5" points="1.42108547e-14 -1.42108547e-14 92 -1.42108547e-14 92 92 1.42108547e-14 92"></polygon>
            <g id="Group" transform="translate(24.000000, 24.000000)" fill="#FFFFFF" fill-rule="nonzero" stroke="#000000" stroke-width="3">
                <path d="M10.1515152,0.5 C4.81341047,0.5 0.5,4.71408852 0.5,9.8947368 L0.5,35.4195489 C0.5,40.6001972 4.81341047,44.8142857 10.1515152,44.8142857 C15.4896198,44.8142857 19.8030303,40.6001972 19.8030303,35.4195489 L19.8030303,9.8947368 C19.8030303,4.71408852 15.4896198,0.5 10.1515152,0.5 Z" id="Rectangle"></path>
                <path d="M33.8484848,0.5 C28.5103802,0.5 24.1969697,4.71408852 24.1969697,9.8947368 L24.1969697,35.4195489 C24.1969697,40.6001972 28.5103802,44.8142857 33.8484848,44.8142857 C39.1865895,44.8142857 43.5,40.6001972 43.5,35.4195489 L43.5,9.8947368 C43.5,4.71408852 39.1865895,0.5 33.8484848,0.5 Z" id="Rectangle"></path>
                <path d="M3.67779646,2.94207651 C-0.265299506,6.44670255 -0.581914134,12.435588 2.96910375,16.3285693 L26.7061527,42.351499 C30.2673623,46.2556536 36.3678199,46.572582 40.3222035,43.0579235 C44.2652995,39.5532975 44.5819141,33.564412 41.0308963,29.6714307 L17.2938473,3.64850098 C13.7326377,-0.255653617 7.63218011,-0.572582048 3.67779646,2.94207651 Z" id="Rectangle"></path>
            </g>
        </g>
    </g>
</svg>