<?xml version="1.0" encoding="UTF-8"?>
<svg width="66px" height="70px" viewBox="0 0 66 70" version="1.1" xmlns="http://www.w3.org/2000/svg" xmlns:xlink="http://www.w3.org/1999/xlink">
    <!-- Generator: Sketch 60 (88103) - https://sketch.com -->
    <title>NOTA_logo</title>
    <desc>Created with Sketch.</desc>
    <g id="Page-1" stroke="none" stroke-width="1" fill="none" fill-rule="evenodd">
        <g id="NOTA_logo" transform="translate(33.500000, 34.500000) rotate(-360.000000) translate(-33.500000, -34.500000) translate(-33.000000, -32.000000)">
            <polygon id="Rectangle-5" points="0 1.42108547e-14 133 1.42108547e-14 133 133 0 133"></polygon>
            <g id="Group" transform="translate(33.000000, 32.000000)" fill="#FFFFFF" fill-rule="nonzero" stroke="#000000" stroke-width="3">
                <path d="M16,1.5 C7.98952487,1.5 1.5,7.94416224 1.5,15.8881579 L1.5,53.1118421 C1.5,61.0558378 7.98952487,67.5 16,67.5 C24.0104751,67.5 30.5,61.0558378 30.5,53.1118421 L30.5,15.8881579 C30.5,7.94416224 24.0104751,1.5 16,1.5 Z" id="Rectangle"></path>
                <path d="M50,1.5 C41.9895249,1.5 35.5,7.94416224 35.5,15.8881579 L35.5,53.1118421 C35.5,61.0558378 41.9895249,67.5 50,67.5 C58.0104751,67.5 64.5,61.0558378 64.5,53.1118421 L64.5,15.8881579 C64.5,7.94416224 58.0104751,1.5 50,1.5 Z" id="Rectangle"></path>
                <path d="M6.28740354,5.22689534 C0.347212047,10.5932019 -0.13061045,19.7797494 5.22111925,25.7431547 L39.2786242,63.6932605 C44.6277795,69.6537972 53.7752687,70.1368242 59.7125965,64.7731047 C65.652788,59.4067981 66.1306104,50.2202506 60.7788808,44.2568453 L26.7213758,6.30673947 C21.3722205,0.346202798 12.2247313,-0.13682419 6.28740354,5.22689534 Z" id="Rectangle"></path>
            </g>
        </g>
    </g>
</svg>